{
  "accessors": [
    {
      "bufferView": 2,
      "componentType": 5126,
      "count": 711,
      "max": [0.9455831050872803, 0.27100855112075806, 0.052503179758787155],
      "min": [-0.9455831050872803, -0.27100855112075806, -0.052503179758787155],
      "type": "VEC3"
    },
    {
      "bufferView": 2,
      "byteOffset": 8532,
      "componentType": 5126,
      "count": 711,
      "max": [0.9998469352722168, 0.9999780654907227, 0.9999993443489075],
      "min": [-0.9998916983604431, -0.9998882412910461, -0.9999993443489075],
      "type": "VEC3"
    },
    {
      "bufferView": 3,
      "componentType": 5126,
      "count": 711,
      "max": [0.9999997019767761, 0.983173668384552, 0.9995333552360535, 1.0],
      "min": [
        -0.9998882412910461, -0.9998469948768616, -0.9999300241470337, -1.0
      ],
      "type": "VEC4"
    },
    {
      "bufferView": 1,
      "componentType": 5126,
      "count": 711,
      "max": [0.9844385385513306, 0.9971222281455994],
      "min": [0.00549653172492981, 0.008659988641738892],
      "type": "VEC2"
    },
    {
      "bufferView": 0,
      "componentType": 5125,
      "count": 2940,
      "type": "SCALAR"
    }
  ],
  "asset": {
    "extras": {
      "author": "3dsofsan (https://sketchfab.com/3dsofsan)",
      "license": "CC-BY-4.0 (http://creativecommons.org/licenses/by/4.0/)",
      "source": "https://sketchfab.com/3d-models/cleaver-butchers-best-friend-8b3a394b1e6741e187e15b8dc5075b54",
      "title": "Cleaver - Butcher's Best Friend"
    },
    "generator": "Sketchfab-12.67.0",
    "version": "2.0"
  },
  "bufferViews": [
    {
      "buffer": 0,
      "byteLength": 11760,
      "name": "floatBufferViews",
      "target": 34963
    },
    {
      "buffer": 0,
      "byteLength": 5688,
      "byteOffset": 11760,
      "byteStride": 8,
      "name": "floatBufferViews",
      "target": 34962
    },
    {
      "buffer": 0,
      "byteLength": 17064,
      "byteOffset": 17448,
      "byteStride": 12,
      "name": "floatBufferViews",
      "target": 34962
    },
    {
      "buffer": 0,
      "byteLength": 11376,
      "byteOffset": 34512,
      "byteStride": 16,
      "name": "floatBufferViews",
      "target": 34962
    }
  ],
  "buffers": [
    {
      "byteLength": 45888,
      "uri": "cleaver.bin"
    }
  ],
  "images": [
    {
      "uri": "textures/cleaver01___Default_baseColor.png"
    },
    {
      "uri": "textures/cleaver01___Default_metallicRoughness.png"
    },
    {
      "uri": "textures/cleaver01___Default_normal.png"
    }
  ],
  "materials": [
    {
      "doubleSided": true,
      "name": "cleaver01___Default",
      "normalTexture": {
        "index": 2
      },
      "occlusionTexture": {
        "index": 1
      },
      "pbrMetallicRoughness": {
        "baseColorTexture": {
          "index": 0
        },
        "metallicRoughnessTexture": {
          "index": 1
        }
      }
    }
  ],
  "meshes": [
    {
      "name": "Cleaver__cleaver01___Default_0",
      "primitives": [
        {
          "attributes": {
            "NORMAL": 1,
            "POSITION": 0,
            "TANGENT": 2,
            "TEXCOORD_0": 3
          },
          "indices": 4,
          "material": 0,
          "mode": 4
        }
      ]
    }
  ],
  "nodes": [
    {
      "children": [1],
      "matrix": [
        0.5661561489105225, 0.0, 0.0, 0.0, 0.0, 1.2571191841071415e-16,
        -0.5661561489105225, 0.0, 0.0, 0.5661561489105225,
        1.2571191841071415e-16, 0.0, 0.0, 0.0, 0.0, 1.0
      ],
      "name": "Sketchfab_model"
    },
    {
      "children": [2],
      "matrix": [
        1.0, 0.0, 0.0, 0.0, 0.0, 0.0, 1.0, 0.0, 0.0, -1.0, 0.0, 0.0, 0.0, 0.0,
        0.0, 1.0
      ],
      "name": "74630238db094af6b9c748d7fe600757.fbx"
    },
    {
      "children": [3],
      "name": "RootNode"
    },
    {
      "children": [4],
      "matrix": [
        0.819152041950629, 0.5735764396905743, 3.512142706451151e-17, 0.0,
        -0.5735764396905738, 0.8191520419506282, 4.3711388941797986e-8, 0.0,
        2.5071822814396636e-8, -3.580627352831679e-8, 0.999999999999999, 0.0,
        0.0, 0.0, 0.0, 1.0
      ],
      "name": "Cleaver"
    },
    {
      "children": [5],
      "matrix": [
        1.0, 0.0, -0.0, 0.0, 0.0, 1.0, 0.0, 0.0, 0.0, 0.0, 1.0, 0.0,
        0.4232739508152008, 0.6044978499412537, -2.642343943648484e-8, 1.0
      ],
      "name": "Object_4"
    },
    {
      "mesh": 0,
      "name": "Cleaver__cleaver01___Default_0"
    }
  ],
  "samplers": [
    {
      "magFilter": 9729,
      "minFilter": 9987,
      "wrapS": 10497,
      "wrapT": 10497
    }
  ],
  "scene": 0,
  "scenes": [
    {
      "name": "Sketchfab_Scene",
      "nodes": [0]
    }
  ],
  "textures": [
    {
      "sampler": 0,
      "source": 0
    },
    {
      "sampler": 0,
      "source": 1
    },
    {
      "sampler": 0,
      "source": 2
    }
  ]
}
